STARTFONT 2.1
FONT -FontForge-FreeSans-Bold-R-Normal-Sans-50-360-100-100-P-276-ISO10646-1
SIZE 36 100 100
FONTBOUNDINGBOX 48 49 -1 -11
COMMENT "Generated by fontforge, http://fontforge.sourceforge.net"
COMMENT "Copyleft 2002, 2003, 2005, 2008, 2009, 2010 Free Software Foundation."
STARTPROPERTIES 40
FOUNDRY "FontForge"
FAMILY_NAME "FreeSans"
WEIGHT_NAME "Bold"
SLANT "R"
SETWIDTH_NAME "Normal"
ADD_STYLE_NAME "Sans"
PIXEL_SIZE 50
POINT_SIZE 360
RESOLUTION_X 100
RESOLUTION_Y 100
SPACING "P"
AVERAGE_WIDTH 276
CHARSET_REGISTRY "ISO10646"
CHARSET_ENCODING "1"
FONTNAME_REGISTRY ""
CHARSET_COLLECTIONS "ISO8859-2 ISO8859-5 ISO8859-7 ISO8859-9 ISO8859-8 ISO8859-4 ISO10646-1"
FONT_NAME "FreeSansBold"
FACE_NAME "Free Sans Bold"
COPYRIGHT "Copyleft 2002, 2003, 2005, 2008, 2009, 2010 Free Software Foundation."
FONT_VERSION "$Revision: 1.199 $"
FONT_ASCENT 40
FONT_DESCENT 10
UNDERLINE_POSITION -11
UNDERLINE_THICKNESS 4
X_HEIGHT 26
CAP_HEIGHT 35
RAW_ASCENT 800
RAW_DESCENT 200
NORM_SPACE 14
RELATIVE_WEIGHT 70
RELATIVE_SETWIDTH 50
SUPERSCRIPT_X -8
SUPERSCRIPT_Y 23
SUPERSCRIPT_SIZE 34
SUBSCRIPT_X 2
SUBSCRIPT_Y 7
SUBSCRIPT_SIZE 34
FIGURE_WIDTH 28
AVG_LOWERCASE_WIDTH 271
AVG_UPPERCASE_WIDTH 343
ENDPROPERTIES
CHARS 96
STARTCHAR space
ENCODING 32
SWIDTH 278 0
DWIDTH 14 0
BBX 1 1 0 0
BITMAP
00
ENDCHAR
STARTCHAR exclam
ENCODING 33
SWIDTH 333 0
DWIDTH 17 0
BBX 7 36 6 0
BITMAP
FE
FE
FE
FE
FE
FE
FE
FE
FE
FE
FE
FE
FE
FE
FE
FC
FC
7C
7C
7C
7C
7C
78
78
78
38
00
00
00
FE
FE
FE
FE
FE
FE
FE
ENDCHAR
STARTCHAR quotedbl
ENCODING 34
SWIDTH 474 0
DWIDTH 24 0
BBX 19 13 2 23
BITMAP
FE0FE0
FE0FE0
FE0FE0
FE0FE0
FE0FE0
FE0FE0
7E0FE0
7E07E0
7E07C0
3C07C0
3C03C0
3C0380
380380
ENDCHAR
STARTCHAR numbersign
ENCODING 35
SWIDTH 556 0
DWIDTH 28 0
BBX 28 37 0 -2
BITMAP
007C0F80
007C1F80
007C1F00
007C1F00
00FC1F00
00F81F00
00F83F00
00F83E00
00F83E00
3FFFFFF0
3FFFFFF0
3FFFFFF0
3FFFFFF0
3FFFFFF0
03F07C00
03E07C00
03E0FC00
03E0F800
03E0F800
07E0F800
07C0F800
FFFFFFC0
FFFFFFC0
FFFFFFC0
FFFFFFC0
FFFFFFC0
0F83F000
0F83E000
0F83E000
1F83E000
1F03E000
1F07E000
1F07C000
1F07C000
3F07C000
3F07C000
3E0FC000
ENDCHAR
STARTCHAR dollar
ENCODING 36
SWIDTH 556 0
DWIDTH 28 0
BBX 25 44 1 -6
BITMAP
001E0000
001E0000
001E0000
01FFE000
07FFF800
0FFFFC00
1FFFFE00
3FFFFE00
3F9E7F00
7F1E3F00
7E1E3F80
7E1E3F80
7E1E3F80
7E1E0000
7F1E0000
7F9E0000
3FFE0000
3FFE0000
1FFF8000
0FFFF000
07FFF800
01FFFE00
007FFF00
001FFF00
001EFF80
001E7F80
001E3F80
001E1F80
FE1E1F80
FE1E1F80
FE1E3F80
7F1E3F80
7F9E7F80
7FDFFF00
3FFFFF00
1FFFFE00
0FFFFC00
03FFF000
00FFC000
001E0000
001E0000
001E0000
001E0000
001E0000
ENDCHAR
STARTCHAR percent
ENCODING 37
SWIDTH 889 0
DWIDTH 44 0
BBX 42 36 1 -1
BITMAP
03F000078000
0FFC000F0000
1FFF000F0000
3FFF801E0000
7FFF801C0000
7E1FC03C0000
FC07C0380000
F807C0780000
F807C0F00000
F803C0F00000
F807C1E00000
FC07C1E00000
7E0FC3C00000
7FFF83C00000
3FFF87800000
1FFF07000000
0FFE0F000000
03F80E00C000
00001E07F800
00003C1FFE00
00003C3FFF00
0000787FFF80
0000787F3F80
0000F0FC0FC0
0000F0F807C0
0001E0F807C0
0001E0F807C0
0003C0F807C0
000380F807C0
000780FC0FC0
000F007F3F80
000F007FFF80
001E003FFF00
001E001FFE00
003C000FF800
003C0001E000
ENDCHAR
STARTCHAR ampersand
ENCODING 38
SWIDTH 722 0
DWIDTH 36 0
BBX 31 37 3 -1
BITMAP
007F8000
01FFE000
03FFF000
07FFF800
0FFFF800
0FF3FC00
0FC1FC00
0FC0FC00
1FC0FC00
0FE0FC00
0FE1F800
0FF3F800
07FFF000
03FFF000
03FFE000
01FF8000
01FF0000
07FF81F8
1FFFC1F8
3FFFC1F8
7FDFE1F8
7F8FF1F8
FE07FBF0
FE03FFF0
FC03FFF0
FC01FFE0
FC00FFE0
FE007FC0
FE003FC0
FF00FFE0
FF81FFE0
7FFFFFF0
3FFFFFF8
3FFFFBFC
1FFFF3FC
07FFC1FE
01FF0000
ENDCHAR
STARTCHAR quotesingle
ENCODING 39
SWIDTH 238 0
DWIDTH 12 0
BBX 7 13 2 23
BITMAP
FE
FE
FE
FE
FE
FE
7E
7E
7E
3C
3C
3C
38
ENDCHAR
STARTCHAR parenleft
ENCODING 40
SWIDTH 333 0
DWIDTH 17 0
BBX 13 46 2 -10
BITMAP
01F8
01F0
03F0
03E0
07E0
07C0
0FC0
0F80
1F80
1F80
3F00
3F00
3F00
7E00
7E00
7E00
7E00
FC00
FC00
FC00
FC00
FC00
FC00
FC00
FC00
FC00
FC00
FC00
FE00
7E00
7E00
7E00
7E00
3F00
3F00
3F00
1F80
1F80
0FC0
0FC0
07C0
07E0
03E0
01F0
01F0
00F8
ENDCHAR
STARTCHAR parenright
ENCODING 41
SWIDTH 333 0
DWIDTH 17 0
BBX 13 46 1 -10
BITMAP
7C00
7C00
3E00
3F00
3F00
1F80
1F80
0FC0
0FC0
07E0
07E0
07E0
03F0
03F0
03F0
03F0
01F8
01F8
01F8
01F8
01F8
01F8
01F8
01F8
01F8
01F8
01F8
01F8
01F8
03F8
03F0
03F0
03F0
03F0
07E0
07E0
0FC0
0FC0
0F80
1F80
1F00
3F00
3E00
7E00
7C00
F800
ENDCHAR
STARTCHAR asterisk
ENCODING 42
SWIDTH 389 0
DWIDTH 19 0
BBX 17 15 1 21
BITMAP
01C000
01C000
01C000
01C000
71C700
7FFF00
FFFF80
3FFF00
07F000
07F000
0FF800
0F7800
1E3C00
3E3E00
0C1800
ENDCHAR
STARTCHAR plus
ENCODING 43
SWIDTH 584 0
DWIDTH 29 0
BBX 25 25 2 -1
BITMAP
003F0000
003F0000
003F0000
003F0000
003F0000
003F0000
003F0000
003F0000
003F0000
FFFFFF80
FFFFFF80
FFFFFF80
FFFFFF80
FFFFFF80
FFFFFF80
003F0000
003F0000
003F0000
003F0000
003F0000
003F0000
003F0000
003F0000
003F0000
003F0000
ENDCHAR
STARTCHAR comma
ENCODING 44
SWIDTH 278 0
DWIDTH 14 0
BBX 8 16 3 -9
BITMAP
FF
FF
FF
FF
FF
FF
FF
0F
0F
0E
0E
1E
7C
FC
F0
C0
ENDCHAR
STARTCHAR hyphen
ENCODING 45
SWIDTH 333 0
DWIDTH 17 0
BBX 14 7 1 10
BITMAP
FFFC
FFFC
FFFC
FFFC
FFFC
FFFC
FFFC
ENDCHAR
STARTCHAR period
ENCODING 46
SWIDTH 278 0
DWIDTH 14 0
BBX 8 7 3 0
BITMAP
FF
FF
FF
FF
FF
FF
FF
ENDCHAR
STARTCHAR slash
ENCODING 47
SWIDTH 278 0
DWIDTH 14 0
BBX 14 37 0 -1
BITMAP
003C
0038
0038
0078
0078
0070
0070
00F0
00E0
00E0
00E0
01E0
01C0
01C0
03C0
0380
0380
0380
0780
0700
0700
0F00
0E00
0E00
0E00
1E00
1C00
1C00
3C00
3800
3800
3800
7800
7000
7000
F000
F000
ENDCHAR
STARTCHAR zero
ENCODING 48
SWIDTH 556 0
DWIDTH 28 0
BBX 25 37 1 -1
BITMAP
00FF8000
03FFE000
07FFF000
0FFFF800
1FFFFC00
1FF7FE00
3FC1FE00
3F80FE00
7F807F00
7F007F00
7F007F00
7F007F00
7F003F80
7F003F80
7F003F80
FE003F80
FE003F80
FE003F80
FE003F80
FE003F80
FE003F80
FE003F80
7F003F80
7F003F80
7F003F00
7F007F00
7F007F00
7F007F00
3F807F00
3F80FE00
3FC1FE00
1FFFFE00
1FFFFC00
0FFFF800
07FFF000
03FFE000
00FF8000
ENDCHAR
STARTCHAR one
ENCODING 49
SWIDTH 556 0
DWIDTH 28 0
BBX 16 35 3 0
BITMAP
001F
003F
003F
007F
01FF
0FFF
FFFF
FFFF
FFFF
FFFF
FFFF
007F
007F
007F
007F
007F
007F
007F
007F
007F
007F
007F
007F
007F
007F
007F
007F
007F
007F
007F
007F
007F
007F
007F
007F
ENDCHAR
STARTCHAR two
ENCODING 50
SWIDTH 556 0
DWIDTH 28 0
BBX 24 36 2 0
BITMAP
01FF00
07FFE0
1FFFF0
3FFFF8
3FFFFC
7FFFFC
7F81FE
FF00FE
FE00FF
FE007F
FE007F
FE007F
FE007F
0000FE
0000FE
0000FE
0001FC
0003FC
0007F8
001FF0
003FE0
007FC0
01FF80
03FE00
07FC00
0FF000
1FE000
3FC000
7F8000
7F8000
FFFFFF
FFFFFF
FFFFFF
FFFFFF
FFFFFF
FFFFFF
ENDCHAR
STARTCHAR three
ENCODING 51
SWIDTH 556 0
DWIDTH 28 0
BBX 25 37 1 -1
BITMAP
00FF8000
07FFE000
0FFFF800
1FFFFC00
3FFFFC00
3FF7FE00
3F81FE00
7F00FE00
7F00FF00
7F007F00
7E007F00
7E00FE00
0000FE00
0000FE00
0001FC00
003FF800
003FF000
003FF000
003FF800
003FFE00
0003FE00
0000FF00
00007F00
00007F80
00003F80
00003F80
FE003F80
7F003F80
7F007F80
7F80FF00
7FC1FF00
3FFFFE00
3FFFFE00
1FFFFC00
0FFFF800
03FFE000
00FF8000
ENDCHAR
STARTCHAR four
ENCODING 52
SWIDTH 556 0
DWIDTH 28 0
BBX 25 35 1 0
BITMAP
0007F800
000FF800
001FF800
001FF800
003FF800
003FF800
007FF800
00FFF800
00FBF800
01F3F800
01F3F800
03E3F800
07E3F800
07C3F800
0F83F800
0F83F800
1F03F800
3F03F800
3E03F800
7C03F800
7C03F800
FFFFFF80
FFFFFF80
FFFFFF80
FFFFFF80
FFFFFF80
FFFFFF80
0003F800
0003F800
0003F800
0003F800
0003F800
0003F800
0003F800
0003F800
ENDCHAR
STARTCHAR five
ENCODING 53
SWIDTH 556 0
DWIDTH 28 0
BBX 25 36 1 -1
BITMAP
0FFFFE00
0FFFFE00
0FFFFE00
0FFFFE00
0FFFFE00
0FFFFE00
1F800000
1F800000
1F000000
1F000000
1F000000
1F1F8000
3F7FE000
3FFFF800
3FFFFC00
3FFFFE00
3FFFFE00
3F81FF00
7F00FF00
00007F00
00007F80
00003F80
00003F80
00003F80
00003F80
00003F80
FE007F00
FF007F00
7F00FF00
7F81FE00
7FFFFE00
3FFFFC00
1FFFF800
0FFFF000
07FFE000
00FF0000
ENDCHAR
STARTCHAR six
ENCODING 54
SWIDTH 556 0
DWIDTH 28 0
BBX 24 37 2 -1
BITMAP
00FF80
03FFE0
07FFF0
0FFFF8
1FFFFC
3FF7FC
3F80FE
7F00FE
7F007E
7E0000
FE0000
FE0000
FE0000
FE3FC0
FEFFF0
FFFFF8
FFFFFC
FFFFFC
FFC3FE
FF01FE
FF00FF
FE007F
FE007F
FE007F
FE007F
FE007F
FE007F
FE007F
7E00FE
7F00FE
7F83FE
3FFFFC
1FFFF8
1FFFF8
0FFFF0
03FFC0
00FF00
ENDCHAR
STARTCHAR seven
ENCODING 55
SWIDTH 556 0
DWIDTH 28 0
BBX 25 35 1 0
BITMAP
FFFFFF80
FFFFFF80
FFFFFF80
FFFFFF80
FFFFFF80
FFFFFF80
00007F00
00007E00
0000FE00
0001FC00
0001F800
0003F800
0007F000
0007E000
000FE000
001FC000
001FC000
003F8000
003F8000
007F0000
007F0000
007E0000
00FE0000
00FE0000
00FC0000
01FC0000
01FC0000
01FC0000
01F80000
03F80000
03F80000
03F80000
03F80000
03F80000
03F80000
ENDCHAR
STARTCHAR eight
ENCODING 56
SWIDTH 556 0
DWIDTH 28 0
BBX 25 37 1 -1
BITMAP
00FF8000
03FFE000
07FFF800
1FFFFC00
1FFFFE00
3FF7FE00
3F80FF00
7F007F00
7F003F00
7E003F00
7E003F00
7F003F00
3F007F00
3F80FE00
1FE3FC00
0FFFF800
07FFF000
07FFF800
1FFFFC00
3FFFFE00
7F80FF00
7F007F00
7F003F80
FE003F80
FE003F80
FE003F80
FE003F80
FE003F80
FF003F80
7F807F80
7FC1FF00
3FFFFF00
3FFFFE00
1FFFFC00
0FFFF800
03FFF000
00FF8000
ENDCHAR
STARTCHAR nine
ENCODING 57
SWIDTH 556 0
DWIDTH 28 0
BBX 25 37 1 -1
BITMAP
00FF0000
03FFE000
0FFFF000
1FFFF800
1FFFFC00
3FFFFC00
3F81FE00
7F00FE00
7F007F00
7E007F00
FE007F00
FE003F00
FE003F00
FE003F80
7E007F80
7F007F80
7F00FF80
7F80FF80
3FE3FF80
3FFFFF80
1FFFFF80
0FFFBF80
07FFBF80
03FE3F00
00383F00
00007F00
00007F00
00007F00
7F00FE00
7F00FE00
7F81FC00
3FFFFC00
3FFFF800
1FFFF000
0FFFE000
07FFC000
01FF0000
ENDCHAR
STARTCHAR colon
ENCODING 58
SWIDTH 333 0
DWIDTH 17 0
BBX 7 26 6 0
BITMAP
FE
FE
FE
FE
FE
FE
FE
00
00
00
00
00
00
00
00
00
00
00
00
FE
FE
FE
FE
FE
FE
FE
ENDCHAR
STARTCHAR semicolon
ENCODING 59
SWIDTH 333 0
DWIDTH 17 0
BBX 7 35 6 -9
BITMAP
FE
FE
FE
FE
FE
FE
FE
00
00
00
00
00
00
00
00
00
00
00
00
FE
FE
FE
FE
FE
FE
FE
0E
0E
0E
1E
3C
7C
F8
F0
80
ENDCHAR
STARTCHAR less
ENCODING 60
SWIDTH 584 0
DWIDTH 29 0
BBX 24 23 2 0
BITMAP
000007
00003F
0000FF
0007FF
003FFF
00FFFC
07FFE0
3FFF80
FFFC00
FFE000
FF0000
FC0000
FF8000
FFE000
FFFC00
1FFF80
03FFF0
00FFFE
001FFF
0003FF
0000FF
00001F
000003
ENDCHAR
STARTCHAR equal
ENCODING 61
SWIDTH 584 0
DWIDTH 29 0
BBX 25 18 2 3
BITMAP
FFFFFF80
FFFFFF80
FFFFFF80
FFFFFF80
FFFFFF80
FFFFFF80
00000000
00000000
00000000
00000000
00000000
00000000
FFFFFF80
FFFFFF80
FFFFFF80
FFFFFF80
FFFFFF80
FFFFFF80
ENDCHAR
STARTCHAR greater
ENCODING 62
SWIDTH 584 0
DWIDTH 29 0
BBX 24 24 2 0
BITMAP
800000
E00000
FC0000
FF8000
FFE000
FFFC00
3FFF80
07FFE0
00FFFC
001FFF
0003FF
0000FF
00001F
0000FF
0007FF
003FFF
01FFFC
0FFFE0
3FFF00
FFFC00
FFE000
FF0000
F80000
E00000
ENDCHAR
STARTCHAR question
ENCODING 63
SWIDTH 611 0
DWIDTH 31 0
BBX 25 37 3 0
BITMAP
00FF8000
07FFE000
0FFFF800
1FFFFC00
3FFFFE00
3FFFFE00
7FC1FF00
7F80FF00
7F007F00
FE007F80
FE003F80
FE003F80
FE003F80
00007F80
00007F00
0000FF00
0001FF00
0003FE00
0007FC00
000FF800
001FF000
003FC000
003F8000
003F0000
007F0000
007E0000
007E0000
00000000
00000000
00000000
007F0000
007F0000
007F0000
007F0000
007F0000
007F0000
007F0000
ENDCHAR
STARTCHAR at
ENCODING 64
SWIDTH 975 0
DWIDTH 49 0
BBX 46 44 1 -7
BITMAP
00003FFE0000
0001FFFFC000
0007FFFFF000
000FFFFFFC00
003FE003FE00
007F00007F00
00FC00001F80
01F800000FC0
03F0000007E0
07E0000003F0
07C0000001F0
0F8003E000F8
1F001FF9E0F8
1F003FFDE078
3E007FFFE07C
3E00FC1FE03C
3C01F00FC03C
7C03E00FC03C
7C03E007C03C
7C07C007803C
7807C007803C
F8078007803C
F80F800F807C
F80F800F007C
F80F800F00F8
F80F801F00F8
FC0F801F01F8
7C0F803E03F0
7C0FC07F07E0
7C07E0FF0FE0
7E07FFFFFFC0
3E03FFEFFF80
3F01FF87FE00
1F807E03F800
1F8000000000
0FE000000000
07F000000000
03F800000000
01FE0000C000
00FFE007C000
003FFFFFE000
000FFFFFE000
0003FFFF8000
00003FF80000
ENDCHAR
STARTCHAR A
ENCODING 65
SWIDTH 722 0
DWIDTH 36 0
BBX 34 36 1 0
BITMAP
0007FC0000
0007FC0000
000FFE0000
000FFE0000
001FFE0000
001FFF0000
001FFF0000
003FFF0000
003FFF8000
003FBF8000
007F3F8000
007F3FC000
007F1FC000
00FE1FC000
00FE1FE000
00FE0FE000
01FC0FE000
01FC0FF000
01FC07F000
03F807F000
03F807F800
07F803F800
07FFFFF800
07FFFFFC00
0FFFFFFC00
0FFFFFFE00
0FFFFFFE00
1FFFFFFE00
1FFFFFFF00
1FC000FF00
3FC0007F00
3F80007F80
3F80007F80
7F80003F80
7F00003FC0
FF00003FC0
ENDCHAR
STARTCHAR B
ENCODING 66
SWIDTH 722 0
DWIDTH 36 0
BBX 29 36 4 0
BITMAP
FFFFFC00
FFFFFF00
FFFFFF80
FFFFFFC0
FFFFFFE0
FFFFFFE0
FF001FF0
FF000FF0
FF0007F0
FF0007F0
FF0007F0
FF0007F0
FF000FF0
FF001FE0
FFFFFFC0
FFFFFF80
FFFFFF00
FFFFFF80
FFFFFFC0
FFFFFFE0
FF003FF0
FF0007F0
FF0007F8
FF0003F8
FF0003F8
FF0003F8
FF0003F8
FF0003F8
FF0007F8
FF003FF8
FFFFFFF0
FFFFFFE0
FFFFFFE0
FFFFFFC0
FFFFFF00
FFFFF800
ENDCHAR
STARTCHAR C
ENCODING 67
SWIDTH 722 0
DWIDTH 36 0
BBX 32 38 2 -1
BITMAP
000FFC00
007FFF00
00FFFFC0
03FFFFF0
07FFFFF8
0FFFFFF8
0FFF1FFC
1FF803FE
3FE001FE
3FC000FE
3FC000FF
7F80007F
7F80007F
7F000000
7F000000
FF000000
FF000000
FF000000
FF000000
FF000000
FF000000
FF000000
FF000000
FF000000
7F000000
7F80007F
7F80007F
7F8000FF
3FC000FF
3FE001FE
1FF003FE
1FFC1FFC
0FFFFFFC
07FFFFF8
03FFFFF0
01FFFFC0
007FFF80
000FFC00
ENDCHAR
STARTCHAR D
ENCODING 68
SWIDTH 722 0
DWIDTH 36 0
BBX 30 36 4 0
BITMAP
FFFFF800
FFFFFE00
FFFFFF00
FFFFFF80
FFFFFFC0
FFFFFFE0
FE003FE0
FE001FF0
FE000FF0
FE0007F8
FE0007F8
FE0003F8
FE0003FC
FE0003FC
FE0003FC
FE0003FC
FE0003FC
FE0001FC
FE0001FC
FE0003FC
FE0003FC
FE0003FC
FE0003FC
FE0003F8
FE0003F8
FE0007F8
FE0007F8
FE000FF0
FE001FF0
FE00FFE0
FFFFFFE0
FFFFFFC0
FFFFFF80
FFFFFF00
FFFFFC00
FFFFE000
ENDCHAR
STARTCHAR E
ENCODING 69
SWIDTH 667 0
DWIDTH 33 0
BBX 27 36 4 0
BITMAP
FFFFFFC0
FFFFFFC0
FFFFFFC0
FFFFFFC0
FFFFFFC0
FFFFFFC0
FE000000
FE000000
FE000000
FE000000
FE000000
FE000000
FE000000
FE000000
FFFFFF80
FFFFFF80
FFFFFF80
FFFFFF80
FFFFFF80
FFFFFF80
FE000000
FE000000
FE000000
FE000000
FE000000
FE000000
FE000000
FE000000
FE000000
FE000000
FFFFFFE0
FFFFFFE0
FFFFFFE0
FFFFFFE0
FFFFFFE0
FFFFFFE0
ENDCHAR
STARTCHAR F
ENCODING 70
SWIDTH 611 0
DWIDTH 31 0
BBX 25 36 4 0
BITMAP
FFFFFF80
FFFFFF80
FFFFFF80
FFFFFF80
FFFFFF80
FFFFFF80
FE000000
FE000000
FE000000
FE000000
FE000000
FE000000
FE000000
FE000000
FFFFFE00
FFFFFE00
FFFFFE00
FFFFFE00
FFFFFE00
FFFFFE00
FE000000
FE000000
FE000000
FE000000
FE000000
FE000000
FE000000
FE000000
FE000000
FE000000
FE000000
FE000000
FE000000
FE000000
FE000000
FE000000
ENDCHAR
STARTCHAR G
ENCODING 71
SWIDTH 778 0
DWIDTH 39 0
BBX 34 38 2 -1
BITMAP
0007FE0000
003FFFC000
00FFFFF000
01FFFFF800
03FFFFFC00
07FFFFFE00
0FFF0FFF00
1FF801FF00
1FE000FF80
3FC0007F80
3FC0003F80
7F80003F80
7F80000000
7F00000000
FF00000000
FF00000000
FF00000000
FF001FFFC0
FF001FFFC0
FF001FFFC0
FF001FFFC0
FF001FFFC0
FF001FFFC0
FF001FFFC0
7F80001FC0
7F80001FC0
7F80003FC0
3FC0003FC0
3FE0007FC0
1FF000FFC0
1FF803FFC0
0FFF9FFFC0
07FFFFFFC0
03FFFFEFC0
01FFFFC7C0
00FFFF87C0
003FFF07C0
0007FC0000
ENDCHAR
STARTCHAR H
ENCODING 72
SWIDTH 722 0
DWIDTH 36 0
BBX 30 36 3 0
BITMAP
FF0003FC
FF0003FC
FF0003FC
FF0003FC
FF0003FC
FF0003FC
FF0003FC
FF0003FC
FF0003FC
FF0003FC
FF0003FC
FF0003FC
FF0003FC
FFFFFFFC
FFFFFFFC
FFFFFFFC
FFFFFFFC
FFFFFFFC
FFFFFFFC
FF0003FC
FF0003FC
FF0003FC
FF0003FC
FF0003FC
FF0003FC
FF0003FC
FF0003FC
FF0003FC
FF0003FC
FF0003FC
FF0003FC
FF0003FC
FF0003FC
FF0003FC
FF0003FC
FF0003FC
ENDCHAR
STARTCHAR I
ENCODING 73
SWIDTH 278 0
DWIDTH 14 0
BBX 8 36 3 0
BITMAP
FF
FF
FF
FF
FF
FF
FF
FF
FF
FF
FF
FF
FF
FF
FF
FF
FF
FF
FF
FF
FF
FF
FF
FF
FF
FF
FF
FF
FF
FF
FF
FF
FF
FF
FF
FF
ENDCHAR
STARTCHAR J
ENCODING 74
SWIDTH 556 0
DWIDTH 28 0
BBX 23 37 1 -1
BITMAP
0000FE
0000FE
0000FE
0000FE
0000FE
0000FE
0000FE
0000FE
0000FE
0000FE
0000FE
0000FE
0000FE
0000FE
0000FE
0000FE
0000FE
0000FE
0000FE
0000FE
0000FE
0000FE
FF00FE
FF00FE
FF00FE
FF00FE
FF00FE
FF00FE
FF01FE
7F81FE
7FC7FE
7FFFFC
3FFFFC
3FFFF8
1FFFF0
07FFE0
01FF00
ENDCHAR
STARTCHAR K
ENCODING 75
SWIDTH 722 0
DWIDTH 36 0
BBX 31 36 4 0
BITMAP
FE0007FC
FE000FF8
FE001FF0
FE003FE0
FE007FC0
FE00FF80
FE01FF00
FE03FE00
FE07FC00
FE07F800
FE0FF000
FE1FE000
FE3FC000
FE7F8000
FEFF0000
FFFF0000
FFFF8000
FFFFC000
FFFFC000
FFFFE000
FFDFF000
FF8FF800
FF07F800
FE03FC00
FE03FE00
FE01FF00
FE00FF00
FE007F80
FE007FC0
FE003FE0
FE001FF0
FE000FF0
FE000FF8
FE0007FC
FE0003FE
FE0001FE
ENDCHAR
STARTCHAR L
ENCODING 76
SWIDTH 611 0
DWIDTH 31 0
BBX 25 36 4 0
BITMAP
FF000000
FF000000
FF000000
FF000000
FF000000
FF000000
FF000000
FF000000
FF000000
FF000000
FF000000
FF000000
FF000000
FF000000
FF000000
FF000000
FF000000
FF000000
FF000000
FF000000
FF000000
FF000000
FF000000
FF000000
FF000000
FF000000
FF000000
FF000000
FF000000
FF000000
FFFFFF80
FFFFFF80
FFFFFF80
FFFFFF80
FFFFFF80
FFFFFF80
ENDCHAR
STARTCHAR M
ENCODING 77
SWIDTH 833 0
DWIDTH 42 0
BBX 36 36 3 0
BITMAP
FFF000FFF0
FFF000FFF0
FFF000FFF0
FFF000FFF0
FFF801FFF0
FFF801FFF0
FFF801FFF0
FFF801FFF0
FFFC01FFF0
FFFC03FFF0
FFFC03FFF0
FF7C03EFF0
FF7C03EFF0
FF7E07EFF0
FF7E07EFF0
FF3E07CFF0
FF3E07CFF0
FF3F07CFF0
FF3F0FCFF0
FF1F0FCFF0
FF1F0F8FF0
FF1F8F8FF0
FF1F9F8FF0
FF1F9F8FF0
FF0F9F0FF0
FF0F9F0FF0
FF0FDF0FF0
FF0FFF0FF0
FF07FF0FF0
FF07FE0FF0
FF07FE0FF0
FF07FE0FF0
FF03FE0FF0
FF03FC0FF0
FF03FC0FF0
FF03FC0FF0
ENDCHAR
STARTCHAR N
ENCODING 78
SWIDTH 722 0
DWIDTH 36 0
BBX 30 36 3 0
BITMAP
FF8001FC
FF8001FC
FFC001FC
FFC001FC
FFE001FC
FFF001FC
FFF001FC
FFF801FC
FFF801FC
FFFC01FC
FFFC01FC
FFFE01FC
FF7F01FC
FF7F01FC
FF3F81FC
FF1F81FC
FF1FC1FC
FF0FE1FC
FF0FE1FC
FF07F1FC
FF03F1FC
FF03F9FC
FF01F9FC
FF01FDFC
FF00FFFC
FF00FFFC
FF007FFC
FF003FFC
FF003FFC
FF001FFC
FF001FFC
FF000FFC
FF0007FC
FF0007FC
FF0003FC
FF0003FC
ENDCHAR
STARTCHAR O
ENCODING 79
SWIDTH 778 0
DWIDTH 39 0
BBX 35 38 2 -1
BITMAP
0007FC0000
003FFF8000
00FFFFE000
01FFFFF000
03FFFFFC00
07FFFFFC00
0FFF1FFE00
1FF803FF00
3FF000FF80
3FE0007F80
3FC0007F80
7F80003FC0
7F80003FC0
7F00001FC0
FF00001FE0
FF00001FE0
FF00001FE0
FF00000FE0
FF00000FE0
FF00000FE0
FF00000FE0
FF00001FE0
FF00001FE0
FF00001FE0
7F00001FC0
7F80003FC0
7F80003FC0
7FC0007FC0
3FC0007F80
3FE000FF80
1FF803FF00
0FFE0FFE00
07FFFFFE00
07FFFFFC00
01FFFFF000
00FFFFE000
003FFF8000
0007FE0000
ENDCHAR
STARTCHAR P
ENCODING 80
SWIDTH 667 0
DWIDTH 33 0
BBX 28 36 4 0
BITMAP
FFFFF800
FFFFFE00
FFFFFF80
FFFFFF80
FFFFFFC0
FFFFFFE0
FE003FE0
FE001FE0
FE000FE0
FE000FF0
FE000FF0
FE000FF0
FE000FF0
FE000FE0
FE001FE0
FE001FE0
FE00FFE0
FFFFFFC0
FFFFFFC0
FFFFFF80
FFFFFF00
FFFFFC00
FFFFF000
FE000000
FE000000
FE000000
FE000000
FE000000
FE000000
FE000000
FE000000
FE000000
FE000000
FE000000
FE000000
FE000000
ENDCHAR
STARTCHAR Q
ENCODING 81
SWIDTH 778 0
DWIDTH 39 0
BBX 35 40 2 -3
BITMAP
0007FC0000
003FFF8000
00FFFFE000
01FFFFF000
03FFFFFC00
07FFFFFE00
0FFF1FFE00
1FF803FF00
1FF000FF80
3FE0007F80
3FC0007FC0
7F80003FC0
7F80001FC0
7F00001FE0
7F00001FE0
FF00001FE0
FF00000FE0
FF00000FE0
FF00000FE0
FF00000FE0
FF00000FE0
FF00000FE0
FF00001FE0
7F00001FE0
7F00061FE0
7F800F9FC0
7F801FFFC0
3FC01FFFC0
3FE00FFF80
1FF007FF80
1FF803FF00
0FFE0FFF00
07FFFFFF00
03FFFFFF80
01FFFFFFC0
00FFFFFFE0
003FFFCFC0
000FFE07C0
0000000380
0000000100
ENDCHAR
STARTCHAR R
ENCODING 82
SWIDTH 722 0
DWIDTH 36 0
BBX 30 36 4 0
BITMAP
FFFFFF00
FFFFFFC0
FFFFFFE0
FFFFFFF0
FFFFFFF0
FFFFFFF8
FF000FF8
FF0007F8
FF0003F8
FF0003F8
FF0003F8
FF0003F8
FF0003F8
FF0007F8
FF000FF0
FFFFFFE0
FFFFFFC0
FFFFFF80
FFFFFE00
FFFFFF80
FFFFFFE0
FFFFFFE0
FF000FF0
FF000FF0
FF0007F0
FF0007F0
FF0007F0
FF0007F0
FF0007F0
FF0007F0
FF0007F0
FF0007F0
FF0007F0
FF0007F8
FF0007FC
FF0003FC
ENDCHAR
STARTCHAR S
ENCODING 83
SWIDTH 667 0
DWIDTH 33 0
BBX 30 38 2 -1
BITMAP
007FE000
03FFFC00
0FFFFF00
1FFFFF80
3FFFFFC0
3FFFFFE0
7FC07FE0
7F801FF0
FF000FF0
FE0007F0
FE0007F0
FE0007F0
FF000000
FF800000
7FE00000
7FFF0000
3FFFF800
3FFFFF00
0FFFFFC0
07FFFFE0
007FFFF0
0007FFF8
00003FF8
00000FF8
000003FC
000003FC
FE0003FC
FE0003FC
FF0003F8
FF0003F8
FF8007F8
7FE01FF8
7FFFFFF0
3FFFFFE0
1FFFFFC0
0FFFFF80
03FFFE00
007FF000
ENDCHAR
STARTCHAR T
ENCODING 84
SWIDTH 611 0
DWIDTH 31 0
BBX 29 36 1 0
BITMAP
FFFFFFF8
FFFFFFF8
FFFFFFF8
FFFFFFF8
FFFFFFF8
FFFFFFF8
001FC000
001FC000
001FC000
001FC000
001FC000
001FC000
001FC000
001FC000
001FC000
001FC000
001FC000
001FC000
001FC000
001FC000
001FC000
001FC000
001FC000
001FC000
001FC000
001FC000
001FC000
001FC000
001FC000
001FC000
001FC000
001FC000
001FC000
001FC000
001FC000
001FC000
ENDCHAR
STARTCHAR U
ENCODING 85
SWIDTH 722 0
DWIDTH 36 0
BBX 29 37 4 -1
BITMAP
FE0007F8
FE0007F8
FE0007F8
FE0007F8
FE0007F8
FE0007F8
FE0007F8
FE0007F8
FE0007F8
FE0007F8
FE0007F8
FE0007F8
FE0007F8
FE0007F8
FE0007F8
FE0007F8
FE0007F8
FE0007F8
FE0007F8
FE0007F8
FE0007F8
FE0007F8
FE0007F8
FE0007F8
FE0007F8
FE0007F8
FF0007F8
FF0007F0
FF000FF0
7F801FF0
7FF0FFE0
3FFFFFE0
3FFFFFC0
1FFFFF80
07FFFF00
03FFFC00
007FF000
ENDCHAR
STARTCHAR V
ENCODING 86
SWIDTH 667 0
DWIDTH 33 0
BBX 31 36 1 0
BITMAP
FF0000FE
7F0001FE
7F8001FC
7F8001FC
3F8003FC
3FC003F8
1FC003F8
1FC003F8
1FC007F0
0FE007F0
0FE007F0
0FE00FE0
07F00FE0
07F00FE0
07F01FC0
03F01FC0
03F81FC0
03F81F80
01F83F80
01FC3F80
01FC3F00
00FC7F00
00FE7E00
00FE7E00
007E7E00
007EFC00
007FFC00
003FFC00
003FF800
003FF800
001FF800
001FF000
001FF000
000FF000
000FE000
000FE000
ENDCHAR
STARTCHAR W
ENCODING 87
SWIDTH 944 0
DWIDTH 47 0
BBX 45 36 1 0
BITMAP
FF001FE007F8
FF003FE007F8
FF003FE007F8
7F003FE007F8
7F803FE007F0
7F803FF00FF0
3F807FF00FF0
3F807FF00FE0
3F807DF00FE0
3FC07DF00FE0
1FC07DF81FE0
1FC0FDF81FC0
1FC0FCF81FC0
0FC0F8F81FC0
0FE0F8FC1F80
0FE0F8FC3F80
0FE1F87C3F80
07E1F87C3F80
07F1F07C3F00
07F1F07E3F00
03F1F07E7F00
03F3F03E7F00
03F3F03E7E00
03FBE03E7E00
01FBE03F7E00
01FBE03FFC00
01FFE01FFC00
00FFC01FFC00
00FFC01FFC00
00FFC01FF800
00FFC00FF800
007FC00FF800
007F800FF000
007F800FF000
007F800FF000
003F8007F000
ENDCHAR
STARTCHAR X
ENCODING 88
SWIDTH 667 0
DWIDTH 33 0
BBX 31 36 1 0
BITMAP
7FC003FE
3FC007FC
3FE007F8
1FF00FF8
0FF00FF0
0FF81FE0
07F81FE0
07FC3FC0
03FC7FC0
01FE7F80
01FEFF00
00FFFF00
00FFFE00
007FFC00
003FFC00
003FF800
001FF800
001FF000
001FF800
003FF800
003FFC00
007FFE00
007FFE00
00FFFF00
01FEFF00
01FE7F80
03FC7FC0
07F83FC0
07F81FE0
0FF01FF0
0FF00FF0
1FE00FF8
3FE007F8
3FC007FC
7FC003FE
FF8003FE
ENDCHAR
STARTCHAR Y
ENCODING 89
SWIDTH 667 0
DWIDTH 33 0
BBX 30 36 2 0
BITMAP
FF0003FC
FF8007FC
7F8007F8
7FC00FF8
3FC00FF0
3FC00FF0
1FE01FE0
0FE01FC0
0FF03FC0
07F03FC0
07F87F80
03F87F00
03FCFF00
01FCFE00
01FEFE00
00FFFC00
00FFFC00
007FF800
007FF800
003FF000
003FF000
001FE000
001FE000
001FE000
001FE000
001FE000
001FE000
001FE000
001FE000
001FE000
001FE000
001FE000
001FE000
001FE000
001FE000
001FE000
ENDCHAR
STARTCHAR Z
ENCODING 90
SWIDTH 611 0
DWIDTH 31 0
BBX 28 36 1 0
BITMAP
FFFFFFF0
FFFFFFF0
FFFFFFF0
FFFFFFF0
FFFFFFF0
FFFFFFF0
00001FE0
00003FE0
00007FC0
0000FF80
0001FF00
0001FE00
0003FE00
0007FC00
000FF800
000FF000
001FF000
003FE000
007FC000
00FF8000
00FF0000
01FF0000
03FE0000
07FC0000
07F80000
0FF80000
1FF00000
3FE00000
7FC00000
7F800000
FFFFFFF0
FFFFFFF0
FFFFFFF0
FFFFFFF0
FFFFFFF0
FFFFFFF0
ENDCHAR
STARTCHAR bracketleft
ENCODING 91
SWIDTH 333 0
DWIDTH 17 0
BBX 12 46 3 -10
BITMAP
FFF0
FFF0
FFF0
FFF0
FFF0
FE00
FE00
FE00
FE00
FE00
FE00
FE00
FE00
FE00
FE00
FE00
FE00
FE00
FE00
FE00
FE00
FE00
FE00
FE00
FE00
FE00
FE00
FE00
FE00
FE00
FE00
FE00
FE00
FE00
FE00
FE00
FE00
FE00
FE00
FE00
FE00
FFF0
FFF0
FFF0
FFF0
FFF0
ENDCHAR
STARTCHAR backslash
ENCODING 92
SWIDTH 278 0
DWIDTH 14 0
BBX 15 37 -1 -1
BITMAP
F000
7000
7000
7800
3800
3800
3C00
1C00
1C00
1E00
0E00
0E00
0F00
0700
0700
0780
0380
0380
03C0
01C0
01C0
01E0
00E0
00E0
00F0
00F0
0070
0078
0078
0038
0038
003C
001C
001C
001E
000E
000E
ENDCHAR
STARTCHAR bracketright
ENCODING 93
SWIDTH 333 0
DWIDTH 17 0
BBX 12 46 1 -10
BITMAP
FFF0
FFF0
FFF0
FFF0
FFF0
07F0
07F0
07F0
07F0
07F0
07F0
07F0
07F0
07F0
07F0
07F0
07F0
07F0
07F0
07F0
07F0
07F0
07F0
07F0
07F0
07F0
07F0
07F0
07F0
07F0
07F0
07F0
07F0
07F0
07F0
07F0
07F0
07F0
07F0
07F0
07F0
FFF0
FFF0
FFF0
FFF0
FFF0
ENDCHAR
STARTCHAR asciicircum
ENCODING 94
SWIDTH 584 0
DWIDTH 29 0
BBX 23 22 3 13
BITMAP
00FE00
00FE00
01FE00
01FF00
01FF00
03FF80
03FF80
07EF80
07EFC0
07C7C0
0FC7E0
0F87E0
0F83E0
1F83F0
1F01F0
3F01F8
3F01F8
3E00FC
7E00FC
7C007C
FC007E
FC007E
ENDCHAR
STARTCHAR underscore
ENCODING 95
SWIDTH 556 0
DWIDTH 28 0
BBX 30 4 -1 -10
BITMAP
FFFFFFFC
FFFFFFFC
FFFFFFFC
FFFFFFFC
ENDCHAR
STARTCHAR grave
ENCODING 96
SWIDTH 333 0
DWIDTH 17 0
BBX 10 8 1 30
BITMAP
FC00
7E00
3E00
1F00
1F00
0F80
0780
03C0
ENDCHAR
STARTCHAR a
ENCODING 97
SWIDTH 556 0
DWIDTH 28 0
BBX 25 28 1 -1
BITMAP
01FFE000
07FFF800
1FFFFC00
1FFFFE00
3FFFFE00
3FC1FE00
7F80FF00
7F007F00
7F007F00
0000FF00
0003FF00
007FFF00
07FFFF00
1FFFFF00
3FFF7F00
7FF07F00
7F807F00
7F007F00
FE00FF00
FE00FF00
FF00FF00
FF01FF00
7FFFFF00
7FFFFF00
3FFFFF00
3FFF7F80
1FFC7F80
07F00000
ENDCHAR
STARTCHAR b
ENCODING 98
SWIDTH 611 0
DWIDTH 31 0
BBX 26 37 3 -1
BITMAP
FE000000
FE000000
FE000000
FE000000
FE000000
FE000000
FE000000
FE000000
FE000000
FE3FE000
FE7FF000
FEFFF800
FFFFFC00
FFFFFE00
FFF3FF00
FFC0FF00
FF807F80
FF007F80
FF003F80
FE003F80
FE001FC0
FE001FC0
FE001FC0
FE001FC0
FE001FC0
FE003FC0
FE003F80
FF003F80
FF007F80
FF807F80
FFC1FF00
FFFFFF00
FFFFFE00
FFFFFC00
FEFFF800
FE7FF000
001FC000
ENDCHAR
STARTCHAR c
ENCODING 99
SWIDTH 556 0
DWIDTH 28 0
BBX 24 28 2 -1
BITMAP
01FFC0
07FFE0
0FFFF8
1FFFFC
3FFFFC
3FE3FE
7F80FE
7F00FF
FF007F
FE007F
FE0000
FE0000
FE0000
FE0000
FE0000
FE0000
FE0000
FE0000
FE007F
FF007F
7F00FE
7F81FE
3FFFFE
3FFFFC
1FFFF8
0FFFF0
03FFE0
00FF80
ENDCHAR
STARTCHAR d
ENCODING 100
SWIDTH 611 0
DWIDTH 31 0
BBX 26 37 1 -1
BITMAP
00001FC0
00001FC0
00001FC0
00001FC0
00001FC0
00001FC0
00001FC0
00001FC0
00001FC0
00FF1FC0
03FFDFC0
07FFFFC0
0FFFFFC0
1FFFFFC0
3FFBFFC0
3FC0FFC0
3F807FC0
7F803FC0
7F003FC0
7F001FC0
7F001FC0
FE001FC0
FE001FC0
FE001FC0
FF001FC0
7F001FC0
7F001FC0
7F003FC0
7F803FC0
3F807FC0
3FE0FFC0
1FFFFFC0
1FFFFFC0
0FFFFFC0
07FFDFC0
03FF9FC0
00FE0000
ENDCHAR
STARTCHAR e
ENCODING 101
SWIDTH 556 0
DWIDTH 28 0
BBX 25 28 1 -1
BITMAP
00FFC000
03FFF000
0FFFF800
1FFFFC00
1FFFFE00
3FC1FE00
3F80FF00
7F007F00
7F007F80
7E003F80
FE003F80
FFFFFF80
FFFFFF80
FFFFFF80
FFFFFF80
FFFFFF80
FE000000
FE000000
FE000000
7F003F80
7F007F80
7F807F00
3FE1FF00
1FFFFE00
1FFFFC00
0FFFF800
03FFE000
00FF8000
ENDCHAR
STARTCHAR f
ENCODING 102
SWIDTH 333 0
DWIDTH 17 0
BBX 15 36 1 0
BITMAP
03FC
07FC
0FFC
0FFC
0FFC
0FE0
1FE0
1FE0
1FE0
1FE0
FFFE
FFFE
FFFE
FFFE
1FE0
1FE0
1FE0
1FE0
1FE0
1FE0
1FE0
1FE0
1FE0
1FE0
1FE0
1FE0
1FE0
1FE0
1FE0
1FE0
1FE0
1FE0
1FE0
1FE0
1FE0
1FE0
ENDCHAR
STARTCHAR g
ENCODING 103
SWIDTH 611 0
DWIDTH 31 0
BBX 25 38 2 -11
BITMAP
01FE3F80
07FF3F80
0FFFBF80
1FFFFF80
3FFFFF80
3FF7FF80
7F81FF80
7F80FF80
FF007F80
FE003F80
FE003F80
FE003F80
FE003F80
FE003F80
FE003F80
FE003F80
FE003F80
FE003F80
FE003F80
FF007F80
7F80FF80
7FC1FF80
3FFFFF80
3FFFFF80
1FFFFF80
0FFFBF80
07FF3F80
01FC3F80
00003F80
00003F80
FF003F80
FF007F00
7F80FF00
7FFFFE00
3FFFFE00
1FFFF800
07FFF000
00FF8000
ENDCHAR
STARTCHAR h
ENCODING 104
SWIDTH 611 0
DWIDTH 31 0
BBX 24 36 3 0
BITMAP
FE0000
FE0000
FE0000
FE0000
FE0000
FE0000
FE0000
FE0000
FE0000
FE1FF0
FE7FF8
FEFFFC
FEFFFE
FFFFFE
FFFFFF
FF80FF
FF00FF
FF007F
FE007F
FE007F
FE007F
FE007F
FE007F
FE007F
FE007F
FE007F
FE007F
FE007F
FE007F
FE007F
FE007F
FE007F
FE007F
FE007F
FE007F
FE007F
ENDCHAR
STARTCHAR i
ENCODING 105
SWIDTH 278 0
DWIDTH 14 0
BBX 7 36 3 0
BITMAP
FE
FE
FE
FE
FE
FE
00
00
00
FE
FE
FE
FE
FE
FE
FE
FE
FE
FE
FE
FE
FE
FE
FE
FE
FE
FE
FE
FE
FE
FE
FE
FE
FE
FE
FE
ENDCHAR
STARTCHAR j
ENCODING 106
SWIDTH 278 0
DWIDTH 14 0
BBX 11 47 0 -11
BITMAP
1FE0
1FE0
1FE0
1FE0
1FE0
1FE0
0000
0000
0000
1FE0
1FE0
1FE0
1FE0
1FE0
1FE0
1FE0
1FE0
1FE0
1FE0
1FE0
1FE0
1FE0
1FE0
1FE0
1FE0
1FE0
1FE0
1FE0
1FE0
1FE0
1FE0
1FE0
1FE0
1FE0
1FE0
1FE0
1FE0
1FE0
1FE0
1FE0
1FE0
FFC0
FFC0
FFC0
FFC0
FF80
FE00
ENDCHAR
STARTCHAR k
ENCODING 107
SWIDTH 556 0
DWIDTH 28 0
BBX 24 36 3 0
BITMAP
FE0000
FE0000
FE0000
FE0000
FE0000
FE0000
FE0000
FE0000
FE0000
FE01FE
FE01FC
FE03FC
FE07F8
FE0FF0
FE1FE0
FE3FC0
FE7F80
FE7F00
FEFE00
FFFE00
FFFE00
FFFF00
FFFF00
FFFF80
FFBFC0
FF3FC0
FF1FE0
FE0FE0
FE0FF0
FE07F8
FE07F8
FE03FC
FE03FC
FE01FE
FE01FF
FE00FF
ENDCHAR
STARTCHAR l
ENCODING 108
SWIDTH 278 0
DWIDTH 14 0
BBX 7 36 3 0
BITMAP
FE
FE
FE
FE
FE
FE
FE
FE
FE
FE
FE
FE
FE
FE
FE
FE
FE
FE
FE
FE
FE
FE
FE
FE
FE
FE
FE
FE
FE
FE
FE
FE
FE
FE
FE
FE
ENDCHAR
STARTCHAR m
ENCODING 109
SWIDTH 889 0
DWIDTH 44 0
BBX 38 27 3 0
BITMAP
FE3FE07FC0
FE7FF0FFF0
FEFFF9FFF8
FFFFFFFFF8
FFFFFFFFFC
FFFFFFFFFC
FF81FF03FC
FF01FE01FC
FE00FE01FC
FE00FE01FC
FE00FE01FC
FE00FE01FC
FE00FE01FC
FE00FE01FC
FE00FE01FC
FE00FE01FC
FE00FE01FC
FE00FE01FC
FE00FE01FC
FE00FE01FC
FE00FE01FC
FE00FE01FC
FE00FE01FC
FE00FE01FC
FE00FE01FC
FE00FE01FC
FE00FE01FC
ENDCHAR
STARTCHAR n
ENCODING 110
SWIDTH 611 0
DWIDTH 31 0
BBX 24 27 3 0
BITMAP
FE1FF0
FE7FF8
FEFFFC
FFFFFE
FFFFFF
FFFFFF
FF80FF
FF007F
FF007F
FE007F
FE007F
FE007F
FE007F
FE007F
FE007F
FE007F
FE007F
FE007F
FE007F
FE007F
FE007F
FE007F
FE007F
FE007F
FE007F
FE007F
FE007F
ENDCHAR
STARTCHAR o
ENCODING 111
SWIDTH 611 0
DWIDTH 31 0
BBX 26 28 2 -1
BITMAP
00FFE000
03FFF800
0FFFFC00
1FFFFE00
3FFFFF00
3FE1FF00
7FC07F80
7F803F80
FF003FC0
FE001FC0
FE001FC0
FE001FC0
FE001FC0
FE001FC0
FE001FC0
FE001FC0
FE001FC0
FE001FC0
FF001FC0
7F003FC0
7F807F80
7FC0FF80
3FFFFF00
1FFFFF00
1FFFFE00
07FFFC00
03FFF000
007FC000
ENDCHAR
STARTCHAR p
ENCODING 112
SWIDTH 611 0
DWIDTH 31 0
BBX 26 38 3 -11
BITMAP
FE3FE000
FE7FF000
FEFFFC00
FFFFFC00
FFFFFE00
FFF3FF00
FFC0FF00
FF807F80
FF007F80
FF003F80
FE003F80
FE003FC0
FE003FC0
FE001FC0
FE001FC0
FE003FC0
FE003FC0
FE003F80
FF003F80
FF007F80
FF807F80
FFC0FF00
FFFFFF00
FFFFFE00
FFFFFC00
FEFFF800
FE7FF000
FE1FC000
FE000000
FE000000
FE000000
FE000000
FE000000
FE000000
FE000000
FE000000
FE000000
FE000000
ENDCHAR
STARTCHAR q
ENCODING 113
SWIDTH 611 0
DWIDTH 31 0
BBX 26 38 1 -11
BITMAP
01FF1FC0
03FF9FC0
07FFDFC0
0FFFFFC0
1FFFFFC0
3FFBFFC0
3FC0FFC0
7F807FC0
7F803FC0
7F003FC0
7F001FC0
7F001FC0
FE001FC0
FE001FC0
FE001FC0
FE001FC0
7F001FC0
7F001FC0
7F003FC0
7F803FC0
7F807FC0
3FC0FFC0
3FFFFFC0
1FFFFFC0
0FFFFFC0
07FFDFC0
03FF9FC0
00FE1FC0
00001FC0
00001FC0
00001FC0
00001FC0
00001FC0
00001FC0
00001FC0
00001FC0
00001FC0
00001FC0
ENDCHAR
STARTCHAR r
ENCODING 114
SWIDTH 389 0
DWIDTH 19 0
BBX 16 27 3 0
BITMAP
FE1F
FE3F
FE7F
FEFF
FFFF
FFFF
FFFF
FF80
FF00
FF00
FE00
FE00
FE00
FE00
FE00
FE00
FE00
FE00
FE00
FE00
FE00
FE00
FE00
FE00
FE00
FE00
FE00
ENDCHAR
STARTCHAR s
ENCODING 115
SWIDTH 556 0
DWIDTH 28 0
BBX 25 28 1 -1
BITMAP
01FFC000
07FFF000
0FFFFC00
1FFFFE00
3FFFFE00
3FC1FF00
3F807F00
7F007F00
7F807F00
7FC00000
3FFC0000
3FFF8000
1FFFF800
0FFFFC00
07FFFF00
00FFFF00
001FFF80
0001FF80
00007F80
FE003F80
7F003F80
7F007F80
7FE1FF00
3FFFFF00
3FFFFE00
1FFFFC00
07FFF800
00FFC000
ENDCHAR
STARTCHAR t
ENCODING 116
SWIDTH 333 0
DWIDTH 17 0
BBX 14 35 1 -1
BITMAP
1FC0
1FC0
1FC0
1FC0
1FC0
1FC0
1FC0
1FC0
FFFC
FFFC
FFFC
FFFC
1FC0
1FC0
1FC0
1FC0
1FC0
1FC0
1FC0
1FC0
1FC0
1FC0
1FC0
1FC0
1FC0
1FC0
1FC0
1FC0
1FC0
1FE0
1FFC
0FFC
0FFC
07FC
03FC
ENDCHAR
STARTCHAR u
ENCODING 117
SWIDTH 611 0
DWIDTH 31 0
BBX 24 28 3 -1
BITMAP
FE007F
FE007F
FE007F
FE007F
FE007F
FE007F
FE007F
FE007F
FE007F
FE007F
FE007F
FE007F
FE007F
FE007F
FE007F
FE007F
FE007F
FE007F
FE007F
FE00FF
FF00FF
FF83FF
FFFFFF
7FFFFF
7FFFFF
3FFF7F
1FFE7F
07F800
ENDCHAR
STARTCHAR v
ENCODING 118
SWIDTH 556 0
DWIDTH 28 0
BBX 26 27 1 0
BITMAP
FE003FC0
FF003F80
7F003F80
7F007F80
7F007F00
3F807F00
3F807F00
3F80FE00
1FC0FE00
1FC0FE00
1FC1FC00
0FE1FC00
0FE1F800
0FE1F800
07E3F800
07F3F000
07F3F000
03F3F000
03FFE000
03FFE000
01FFE000
01FFC000
00FFC000
00FFC000
00FF8000
007F8000
007F8000
ENDCHAR
STARTCHAR w
ENCODING 119
SWIDTH 778 0
DWIDTH 39 0
BBX 38 27 0 0
BITMAP
FF00FE01FC
7F00FE01FC
7F01FE01FC
7F01FF03F8
3F81FF03F8
3F81FF03F8
3F83FF03F0
3F83FF87F0
1F83FF87F0
1FC3EF87F0
1FC3EF87E0
1FC7EF87E0
0FC7CFCFE0
0FE7CFCFC0
0FE7C7CFC0
07E7C7CFC0
07EF87DFC0
07EF87FF80
07FF83FF80
03FF83FF80
03FF83FF00
03FF03FF00
01FF03FF00
01FF01FF00
01FF01FE00
01FE01FE00
00FE01FE00
ENDCHAR
STARTCHAR x
ENCODING 120
SWIDTH 556 0
DWIDTH 28 0
BBX 25 27 1 0
BITMAP
FF807F80
7F80FF80
3FC0FF00
3FC1FE00
1FE1FE00
0FE3FC00
0FF3F800
07F7F800
03FFF000
03FFE000
01FFE000
00FFC000
00FF8000
007F8000
00FF8000
01FFC000
01FFE000
03FFE000
07FFF000
07F7F800
0FF3F800
1FE3FC00
1FE1FE00
3FC1FE00
7FC0FF00
7F807F80
FF007F80
ENDCHAR
STARTCHAR y
ENCODING 121
SWIDTH 556 0
DWIDTH 28 0
BBX 26 38 1 -11
BITMAP
FE001FC0
FF003F80
FF003F80
7F003F80
7F807F00
7F807F00
3F807F00
3F807E00
3FC0FE00
1FC0FE00
1FC0FC00
0FE1FC00
0FE1FC00
0FE1F800
07F1F800
07F3F800
07F3F000
03F3F000
03FFE000
03FFE000
01FFE000
01FFC000
01FFC000
00FFC000
00FF8000
007F8000
007F8000
007F0000
007F0000
007F0000
007E0000
00FE0000
01FE0000
1FFC0000
1FFC0000
1FF80000
1FF00000
1FC00000
ENDCHAR
STARTCHAR z
ENCODING 122
SWIDTH 500 0
DWIDTH 25 0
BBX 22 27 1 0
BITMAP
7FFFFC
7FFFFC
7FFFFC
7FFFFC
7FFFFC
7FFFFC
0007F8
000FF0
001FF0
003FE0
007FC0
00FF80
00FF00
01FE00
03FC00
07FC00
0FF800
1FF000
3FE000
3FC000
7F8000
FFFFFC
FFFFFC
FFFFFC
FFFFFC
FFFFFC
FFFFFC
ENDCHAR
STARTCHAR braceleft
ENCODING 123
SWIDTH 389 0
DWIDTH 19 0
BBX 14 46 2 -10
BITMAP
01FC
03FC
07FC
0FFC
0FFC
0FC0
0FC0
0FC0
0FC0
0FC0
0FC0
0FC0
0FC0
0FC0
0FC0
0FC0
0FC0
0FC0
0FC0
1F80
FF80
FF00
F800
FF00
FF80
1F80
0FC0
0FC0
0FC0
0FC0
0FC0
0FC0
0FC0
0FC0
0FC0
0FC0
0FC0
0FC0
0FC0
0FC0
0FC0
0FFC
07FC
07FC
03FC
00FC
ENDCHAR
STARTCHAR bar
ENCODING 124
SWIDTH 280 0
DWIDTH 14 0
BBX 4 46 5 -10
BITMAP
F0
F0
F0
F0
F0
F0
F0
F0
F0
F0
F0
F0
F0
F0
F0
F0
F0
F0
F0
F0
F0
F0
F0
F0
F0
F0
F0
F0
F0
F0
F0
F0
F0
F0
F0
F0
F0
F0
F0
F0
F0
F0
F0
F0
F0
F0
ENDCHAR
STARTCHAR braceright
ENCODING 125
SWIDTH 389 0
DWIDTH 19 0
BBX 14 46 4 -10
BITMAP
FE00
FF00
FF80
FF80
FF80
1F80
0FC0
0FC0
0FC0
0FC0
0FC0
0FC0
0FC0
0FC0
0FC0
0FC0
0FC0
0FC0
0FC0
0FC0
0FE0
07FC
01FC
03FC
07FC
0FF0
0FC0
0FC0
0FC0
0FC0
0FC0
0FC0
0FC0
0FC0
0FC0
0FC0
0FC0
0FC0
0FC0
0FC0
1F80
FF80
FF80
FF00
FE00
FC00
ENDCHAR
STARTCHAR asciitilde
ENCODING 126
SWIDTH 584 0
DWIDTH 29 0
BBX 23 9 3 7
BITMAP
070000
3FC000
7FF01E
7FF81E
F8FE3C
F03FFC
F01FFC
F00FF8
0003E0
ENDCHAR
STARTCHAR degree
ENCODING 176
SWIDTH 606 0
DWIDTH 30 0
BBX 15 15 8 19
BITMAP
0FC0
3FF0
7FF8
787C
F01C
E01C
E01E
E00E
E01E
E01C
F03C
7CF8
3FF8
1FE0
0780
ENDCHAR
ENDFONT
